Coordinates
version=1
nRows=16
nColumns=63
inDegrees=yes

Units are S.I. units (second, meters, Newtons, ...)
If the header above contains a line with 'inDegrees', this indicates whether rotational values are in degrees (yes) or radians (no).

endheader
time	pelvis_tilt	pelvis_list	pelvis_rotation	pelvis_tx	pelvis_ty	pelvis_tz	hip_flexion_r	hip_adduction_r	hip_rotation_r	knee_angle_r	knee_angle_r_beta	ankle_angle_r	subtalar_angle_r	mtp_angle_r	hip_flexion_l	hip_adduction_l	hip_rotation_l	knee_angle_l	knee_angle_l_beta	ankle_angle_l	subtalar_angle_l	mtp_angle_l	L5_S1_Flex_Ext	L5_S1_Lat_Bending	L5_S1_axial_rotation	L4_L5_Flex_Ext	L4_L5_Lat_Bending	L4_L5_axial_rotation	L3_L4_Flex_Ext	L3_L4_Lat_Bending	L3_L4_axial_rotation	L2_L3_Flex_Ext	L2_L3_Lat_Bending	L2_L3_axial_rotation	L1_L2_Flex_Ext	L1_L2_Lat_Bending	L1_L2_axial_rotation	L1_T12_Flex_Ext	L1_T12_Lat_Bending	L1_T12_axial_rotation	Abs_r3	Abs_r2	Abs_r1	Abs_t1	Abs_t2	neck_flexion	neck_bending	neck_rotation	arm_flex_r	arm_add_r	arm_rot_r	elbow_flex_r	pro_sup_r	wrist_flex_r	wrist_dev_r	arm_flex_l	arm_add_l	arm_rot_l	elbow_flex_l	pro_sup_l	wrist_flex_l	wrist_dev_l
0.833333	1.092580	-2.696817	99.887666	0.007103	0.982332	0.710968	-1.382618	-2.287542	-0.397807	1.791925	0.031275	21.510199	-3.155218	0.000000	1.361681	0.277515	13.251574	0.797676	0.013922	22.098674	-3.729010	0.000000	0.183212	-0.191325	-0.646495	0.340243	-0.254462	-0.686901	0.300999	-0.465186	-0.686901	0.209393	-0.465186	-0.565683	0.170131	-0.390149	-0.525277	0.104687	-0.296362	-0.484871	1.308666	-2.164301	-3.595612	0.000000	0.000000	25.895555	8.196637	7.670402	8.445647	-6.082698	47.801697	38.507608	19.596395	-4.007182	3.656193	12.065147	-9.595813	58.411844	41.138428	77.684753	6.654572	-5.403989
0.850000	1.030055	-2.750312	100.011604	0.006932	0.982424	0.710879	-1.492587	-2.317357	0.450921	1.510639	0.026366	21.065507	-4.497501	0.000000	1.441426	0.374504	13.589546	0.767006	0.013387	21.982289	-4.129468	0.000000	0.186235	-0.195867	-0.717609	0.345857	-0.260503	-0.762459	0.305966	-0.476230	-0.762459	0.212848	-0.476230	-0.627908	0.172938	-0.399411	-0.583057	0.106415	-0.303398	-0.538207	1.330258	-2.215684	-3.991125	0.000000	0.000000	25.895988	8.585339	8.346323	8.596600	-6.153265	48.744156	38.633663	18.554112	-4.020128	4.026636	11.455517	-9.662512	56.836574	41.926987	77.551098	6.669842	-4.399857
0.866667	0.974982	-2.811838	100.148454	0.006864	0.982543	0.710801	-1.570532	-2.342318	1.110584	1.286236	0.022449	20.653728	-5.638042	0.000000	1.543719	0.460369	13.841310	0.759297	0.013252	21.871367	-4.430584	0.000000	0.189464	-0.202671	-0.793270	0.351855	-0.269552	-0.842849	0.311271	-0.492773	-0.842849	0.216539	-0.492773	-0.694111	0.175937	-0.413286	-0.644532	0.108260	-0.313937	-0.594952	1.353326	-2.292651	-4.411928	0.000000	0.000000	25.813207	8.994159	9.016839	8.883825	-6.406806	50.305266	39.076159	14.936889	-3.899260	4.784376	10.692328	-9.775740	54.947077	43.018631	77.659930	6.769825	-3.075314
0.883333	0.930834	-2.874214	100.294764	0.006914	0.982699	0.710700	-1.623947	-2.356589	1.495113	1.114992	0.019460	20.313399	-6.430450	0.000000	1.661304	0.527615	13.910293	0.777161	0.013564	21.814832	-4.481042	0.000000	0.192788	-0.212094	-0.870845	0.358026	-0.282085	-0.925273	0.316731	-0.515685	-0.925273	0.220337	-0.515685	-0.761990	0.179023	-0.432502	-0.707562	0.110159	-0.328534	-0.653134	1.377063	-2.399250	-4.843380	0.000000	0.000000	25.679791	9.347311	9.605668	9.247162	-6.844181	52.040850	39.724993	12.053084	-3.491045	5.443661	9.870431	-9.988515	53.016414	44.425867	77.961571	6.853951	-1.595852
0.900000	0.896023	-2.928532	100.417063	0.007127	0.982889	0.710567	-1.650234	-2.361744	1.625412	1.005970	0.017557	20.086153	-6.827721	0.000000	1.780008	0.576842	13.858619	0.815133	0.014227	21.808821	-4.413893	0.000000	0.195635	-0.225396	-0.945754	0.363313	-0.299776	-1.004864	0.321408	-0.548027	-1.004864	0.223591	-0.548027	-0.827535	0.181666	-0.459627	-0.768425	0.111786	-0.349138	-0.709316	1.397399	-2.549722	-5.260002	0.000000	0.000000	25.540504	9.529757	9.962648	9.660124	-7.472681	53.749312	40.653246	11.231204	-2.838571	5.671155	9.090208	-10.342691	51.156367	46.161824	78.485964	7.008960	-0.037609
0.916667	0.877288	-2.967688	100.524858	0.007469	0.983099	0.710316	-1.672437	-2.346741	1.486100	0.925529	0.016154	19.989555	-6.802128	0.000000	1.887143	0.599786	13.733935	0.868646	0.015161	21.869458	-4.262739	0.000000	0.199425	-0.242530	-1.011901	0.370352	-0.322564	-1.075145	0.327635	-0.589686	-1.075145	0.227923	-0.589686	-0.885413	0.185186	-0.494566	-0.822169	0.113951	-0.375678	-0.758926	1.424472	-2.743543	-5.627888	0.000000	0.000000	25.399961	9.502824	9.995903	10.006048	-8.294844	55.186667	42.015434	12.364071	-2.050782	5.431117	8.464482	-10.855904	49.494558	48.244232	79.258773	7.272913	1.510846
0.933333	0.873523	-2.986098	100.642660	0.007957	0.983343	0.709973	-1.707222	-2.299583	1.285561	0.841485	0.014687	19.987244	-6.646632	0.000000	1.976815	0.593876	13.581707	0.929237	0.016218	21.980735	-4.053811	0.000000	0.202751	-0.264074	-1.080231	0.376529	-0.351218	-1.147746	0.333100	-0.642068	-1.147746	0.231724	-0.642068	-0.945202	0.188275	-0.538499	-0.877688	0.115852	-0.409050	-0.810173	1.448230	-2.987253	-6.007922	0.000000	0.000000	25.329504	9.206959	9.704811	10.270265	-9.199250	56.147680	43.769404	15.082345	-1.207121	4.499494	8.045498	-11.562015	48.023132	50.696934	80.213104	7.639080	2.945466
0.950000	0.883094	-2.985705	100.711859	0.008628	0.983606	0.709508	-1.733682	-2.234207	0.864751	0.782973	0.013665	20.151283	-6.058114	0.000000	2.044120	0.559789	13.162694	0.998365	0.017425	22.200648	-3.541708	0.000000	0.205619	-0.289246	-1.133106	0.381855	-0.384697	-1.203925	0.337811	-0.703272	-1.203925	0.235002	-0.703272	-0.991468	0.190938	-0.589829	-0.920649	0.117491	-0.448041	-0.849830	1.468714	-3.272003	-6.301997	0.000000	0.000000	25.321201	8.624653	9.124888	10.400940	-10.133339	56.381366	46.012878	19.486662	-0.371675	3.267766	7.926865	-12.437066	46.805208	53.540353	81.033474	8.117441	4.333591
0.966667	0.915472	-2.975644	100.750793	0.009455	0.983871	0.708912	-1.764050	-2.131509	0.557949	0.704214	0.012291	20.360720	-5.545247	0.000000	2.094352	0.492158	12.748613	1.067026	0.018623	22.459080	-3.091155	0.000000	0.209143	-0.317397	-1.174588	0.388399	-0.422138	-1.248000	0.343601	-0.771719	-1.248000	0.239029	-0.771719	-1.027764	0.194210	-0.647236	-0.954353	0.119504	-0.491648	-0.880941	1.493886	-3.590460	-6.532706	0.000000	0.000000	25.378016	7.747291	8.313389	10.476754	-11.051413	55.990037	48.730167	24.847770	0.334166	1.882769	8.076840	-13.425432	45.561244	56.736332	81.971931	8.780148	5.634164
0.983333	0.973533	-2.958144	100.718062	0.010462	0.984153	0.708225	-1.772790	-2.000912	0.129281	0.645753	0.011271	20.685354	-4.734857	0.000000	2.127785	0.386855	12.115956	1.138070	0.019863	22.784272	-2.443896	0.000000	0.212488	-0.347157	-1.192381	0.394612	-0.461719	-1.266905	0.349097	-0.844078	-1.266905	0.242853	-0.844078	-1.043333	0.197316	-0.707923	-0.968810	0.121416	-0.537746	-0.894286	1.517781	-3.927110	-6.631666	0.000000	0.000000	25.490800	6.598304	7.402643	10.529471	-11.898453	54.760208	51.836025	31.217278	0.831599	0.668712	8.527855	-14.508050	44.363393	60.255011	82.765137	9.472509	6.794585
1.000000	1.056932	-2.911658	100.584574	0.011658	0.984481	0.707456	-1.777040	-1.843343	-0.370776	0.620839	0.010836	21.102407	-3.677063	0.000000	2.115050	0.243105	11.336199	1.209741	0.021114	23.146555	-1.727043	0.000000	0.212753	-0.377874	-1.179849	0.395104	-0.502572	-1.253590	0.349532	-0.918762	-1.253590	0.243156	-0.918762	-1.032368	0.197563	-0.770560	-0.958627	0.121567	-0.585326	-0.884887	1.519675	-4.274582	-6.561967	0.000000	0.000000	25.613989	5.239790	6.510439	10.611761	-12.672981	52.718360	55.259191	38.359673	1.025061	-0.229060	9.258457	-15.706605	43.139587	64.082142	83.475311	10.184819	7.794846
1.016667	1.156528	-2.840512	100.365630	0.013064	0.984864	0.706682	-1.791600	-1.662398	-0.741434	0.593603	0.010360	21.505480	-2.700247	0.000000	2.055502	0.072903	10.658653	1.266631	0.022107	23.448075	-1.267845	0.000000	0.209862	-0.411837	-1.144604	0.389734	-0.547743	-1.216142	0.344782	-1.001340	-1.216142	0.239851	-1.001340	-1.001529	0.194878	-0.839818	-0.929991	0.119915	-0.637935	-0.858453	1.499022	-4.658781	-6.365946	0.000000	0.000000	25.712741	3.719325	5.741056	10.824066	-13.394309	50.150232	58.909849	45.609634	0.838887	-0.595028	10.265433	-17.079502	41.747341	68.198781	84.303896	10.725056	8.604873
1.033333	1.269256	-2.726208	100.021976	0.014717	0.985334	0.705925	-1.817893	-1.464925	-1.071215	0.602777	0.010520	21.930973	-1.629292	0.000000	1.929345	-0.123325	9.937588	1.315994	0.022968	23.719189	-0.891204	0.000000	0.202197	-0.450600	-1.064906	0.375499	-0.599298	-1.131463	0.332189	-1.095590	-1.131463	0.231091	-1.095590	-0.931793	0.187760	-0.918864	-0.865236	0.115535	-0.697980	-0.798679	1.444271	-5.097281	-5.922687	0.000000	0.000000	25.745099	2.069838	4.999778	11.079246	-14.074908	46.831348	62.709937	53.023247	0.289120	-0.549915	11.695524	-18.632729	40.470927	72.449931	85.116660	10.969392	9.045592
1.050000	1.386542	-2.577673	99.587907	0.016620	0.985875	0.705218	-1.865744	-1.255161	-1.263171	0.620187	0.010824	22.307117	-0.660318	0.000000	1.745921	-0.335784	9.347310	1.350710	0.023574	23.906948	-0.787293	0.000000	0.190792	-0.496491	-0.950135	0.354319	-0.660334	-1.009518	0.313451	-1.207169	-1.009518	0.218056	-1.207169	-0.831368	0.177169	-1.012445	-0.771984	0.109018	-0.769065	-0.712601	1.362805	-5.616410	-5.284364	0.000000	0.000000	25.719161	0.337332	4.338064	11.411144	-14.745785	42.880326	66.524181	60.664550	-0.608642	-0.083943	13.634117	-20.386279	39.364510	76.732186	85.973332	10.798917	9.001391
1.066667	1.506253	-2.384940	99.051721	0.018778	0.986505	0.704554	-1.939473	-1.036935	-1.373951	0.660994	0.011537	22.657107	0.317972	0.000000	1.493945	-0.562601	8.820588	1.371076	0.023930	24.024110	-0.875434	0.000000	0.175069	-0.550477	-0.793358	0.325120	-0.732134	-0.842943	0.287620	-1.338429	-0.842943	0.200086	-1.338429	-0.694188	0.162569	-1.122532	-0.644603	0.100034	-0.852688	-0.595019	1.250498	-6.227101	-4.412420	0.000000	0.000000	25.652008	-1.506152	3.622373	11.798532	-15.434841	38.274266	70.253133	68.151841	-1.771980	0.453348	16.148226	-22.308113	38.525444	80.891560	86.789752	10.262184	8.415569
1.083333	1.629161	-2.145140	98.432409	0.021171	0.987236	0.703939	-2.046711	-0.807886	-1.347758	0.722033	0.012602	22.952203	1.202338	0.000000	1.177015	-0.804527	8.339897	1.386058	0.024191	24.069114	-1.115060	0.000000	0.154973	-0.611526	-0.607733	0.287801	-0.813329	-0.645717	0.254606	-1.486864	-0.645717	0.177119	-1.486864	-0.531767	0.143908	-1.247024	-0.493783	0.088552	-0.947254	-0.455800	1.106960	-6.917704	-3.380030	0.000000	0.000000	25.561755	-3.419312	2.969464	12.302989	-16.152840	33.092824	73.749809	75.206646	-3.130684	0.874663	19.195480	-24.392003	37.865524	84.814864	87.443511	9.247086	7.255331
